<svg version="1.1" xmlns="http://www.w3.org/2000/svg" xmlns:xlink="http://www.w3.org/1999/xlink" width="407.5241" height="122.66971" viewBox="0,0,407.5241,122.66971">
    <g transform="translate(-34.4,-116.66809)">
        <g data-paper-data="{&quot;isPaintingLayer&quot;:true}" stroke-linejoin="miter" stroke-miterlimit="10" stroke-dasharray="" stroke-dashoffset="0" style="mix-blend-mode: normal">
            <path d="M387.9,195.19944v34.8h-5.6v-34.4c0,-5.06667 -1.16667,-8.81666 -3.5,-11.25c-2.33333,-2.43333 -5.73334,-3.65 -10.2,-3.65c-11.66667,0 -17.5,6.76666 -17.5,20.3v29h-5.7v-53.2h4.6l0.8,9.2h0.4c1.14826,-2.37797 2.83817,-4.45353 4.934,-6.06c0.56722,-0.44306 1.15665,-0.85694 1.766,-1.24c1.8953,-1.17593 3.9898,-1.99509 6.18,-2.417c1.68629,-0.33131 3.4015,-0.49312 5.12,-0.483c1.80763,-0.01249 3.61228,0.14892 5.389,0.482c2.07734,0.40534 3.92133,1.06566 5.532,1.981c1.0856,0.61365 2.08696,1.3656 2.979,2.237c1.53405,1.5381 2.69838,3.4048 3.405,5.459c0.552,1.524 0.94034,3.229 1.165,5.115c0.15789,1.3696 0.23469,2.74733 0.23,4.126zM322,176.79944h5.7v53.2h-4.6l-0.9,-9.1h-0.3c-1.29021,2.55582 -3.18384,4.75871 -5.517,6.418c-0.4013,0.29145 -0.81254,0.56895 -1.233,0.832c-1.73993,1.07188 -3.65053,1.83795 -5.649,2.265c-1.528,0.34133 -3.174,0.53333 -4.938,0.576c-0.25429,0.00608 -0.50864,0.00907 -0.763,0.009c-9.94333,0 -15.92133,-4.11366 -17.934,-12.341c-0.53598,-2.31402 -0.79313,-4.68387 -0.766,-7.059v-34.8h5.7v34.3c-0.00777,1.3763 0.0885,2.75122 0.288,4.113c0.21467,1.40267 0.54833,2.665 1.001,3.787c0.49714,1.27558 1.23027,2.44602 2.161,3.45c1.31306,1.36486 2.95862,2.3646 4.775,2.901c1.596,0.49934 3.421,0.749 5.475,0.749c11.66667,0 17.5,-6.76666 17.5,-20.3zM113.6,153.99944v21c0,1.93333 -0.03333,3.98334 -0.1,6.15c-0.05934,1.938 -0.119,3.54266 -0.179,4.814c-0.00678,0.14534 -0.01377,0.29068 -0.021,0.436h0.3c1.0738,-2.38576 2.68681,-4.48965 4.712,-6.146c0.603,-0.5024 1.2333,-0.97112 1.888,-1.404c1.85277,-1.20834 3.91579,-2.05838 6.082,-2.506c1.66933,-0.36266 3.47533,-0.544 5.418,-0.544c2.35371,-0.02384 4.69813,0.2986 6.958,0.957c3.53228,1.04693 6.6663,3.13569 8.992,5.993c2.91134,3.51866 4.717,8.31567 5.417,14.391c0.22854,2.04495 0.33972,4.10133 0.333,6.159c0,6.61266 -1.18767,12.18233 -3.563,16.709c-0.63142,1.20619 -1.36298,2.35722 -2.187,3.441c-3.02436,3.99381 -25.90734,5.96 -27.7,4.8c-1.4804,-0.94307 -2.81914,-2.09191 -3.976,-3.412c-0.90436,-1.04217 -1.66882,-2.19794 -2.274,-3.438h-0.4l-1.1,8.6h-4.3v-76zM441.6,194.19944v35.8h-4.3l-1,-9h-0.3c-1.35165,2.12509 -3.01487,4.03508 -4.934,5.666c-0.67446,0.56803 -1.38096,1.09689 -2.116,1.584c-1.24593,0.80677 -2.6071,1.41975 -4.037,1.818c-1.202,0.34933 -2.52033,0.60066 -3.955,0.754c-1.18203,0.12214 -2.36969,0.18156 -3.558,0.178c-1.64537,0.01116 -3.28778,-0.14126 -4.903,-0.455c-1.93,-0.38867 -3.64634,-1.027 -5.149,-1.915c-0.72696,-0.42895 -1.41256,-0.9244 -2.048,-1.48c-2.93333,-2.56667 -4.4,-6.25 -4.4,-11.05c-0.02398,-1.85967 0.28558,-3.70857 0.914,-5.459c0.966,-2.598 2.69766,-4.74267 5.195,-6.434c0.12917,-0.08742 0.25951,-0.1731 0.391,-0.257c4.29066,-2.73934 10.509,-4.286 18.655,-4.64c0.08166,-0.00346 0.16333,-0.00679 0.245,-0.01l9.7,-0.5v-3.7c0,-5.2 -1.05,-8.9 -3.15,-11.1c-2.1,-2.2 -5.18333,-3.3 -9.25,-3.3c-2.73334,0 -5.36667,0.36666 -7.9,1.1c-2.43916,0.71166 -4.82096,1.60688 -7.125,2.678c-0.15868,0.07325 -0.31701,0.14726 -0.475,0.222l-1.8,-4.6c2.53334,-1.2 5.28334,-2.2 8.25,-3c2.96666,-0.8 6.05,-1.2 9.25,-1.2c3.89067,0 7.13666,0.61666 9.738,1.85c1.35848,0.63265 2.59738,1.49535 3.662,2.55c1.33952,1.37248 2.36574,3.01892 3.008,4.826c0.928,2.48666 1.392,5.51134 1.392,9.074zM208.7,200.19944v3.9h-38c-0.01228,2.05729 0.14929,4.11193 0.483,6.142c0.38666,2.26066 1.00467,4.29 1.854,6.088c0.67935,1.45525 1.55886,2.80836 2.613,4.02c3.3,3.76666 8.01667,5.65 14.15,5.65c1.35436,0.00295 2.70824,-0.05143 4.058,-0.163c1.33266,-0.11334 2.582,-0.28567 3.748,-0.517c0.26549,-0.05274 0.53019,-0.10941 0.794,-0.17c1.26648,-0.2949 8.1,2.45 8.1,2.45c-1.76609,0.80022 -3.58868,1.46936 -5.453,2.002c-0.80807,0.22923 -26.96484,-2.6409 -29.847,-5.902c-4.26666,-4.86667 -6.4,-11.5 -6.4,-19.9c0,-5.4 0.91666,-10.2 2.75,-14.4c1.04629,-2.4485 2.48558,-4.70961 4.261,-6.694c1.10437,-1.21954 2.34173,-2.31167 3.689,-3.256c2.5077,-1.7389 5.38181,-2.8776 8.4,-3.328c1.38922,-0.21875 2.79367,-0.32642 4.2,-0.322c1.73164,-0.01127 3.45951,0.16306 5.154,0.52c2.21866,0.45918 4.32447,1.35303 6.196,2.63c2.72883,1.90186 4.9197,4.47682 6.36,7.475c0.19076,0.38663 0.37083,0.77844 0.54,1.175c0.98193,2.3341 1.65139,4.78764 1.991,7.297c0.24404,1.75705 0.36401,3.52909 0.359,5.303zM73.7,229.99944h-39.3v-71.4h5.8v66.1h33.5zM252.2,176.69944l-0.9,5.3c-2.13333,-0.6 -4.33334,-0.9 -6.6,-0.9c-1.85001,-0.02119 -3.68955,0.28033 -5.436,0.891c-2.43894,0.89132 -4.57591,2.45453 -6.164,4.509c-1.65817,2.11848 -2.84373,4.56733 -3.477,7.182c-0.46266,1.814 -0.73033,3.78666 -0.803,5.918c-0.01345,0.39986 -0.02011,0.79992 -0.02,1.2v29.2h-5.7v-53.2h4.8l0.6,9.9h0.3c1.33334,-3 3.36666,-5.55 6.1,-7.65c2.03534,-1.5465 4.43092,-2.54934 6.961,-2.914c1.0386,-0.16017 2.08812,-0.23907 3.139,-0.236c1.47796,-0.00428 2.95456,0.08993 4.42,0.282c0.93507,0.12407 1.863,0.29698 2.78,0.518zM268.2,153.99944v76h-5.7v-76zM113.6,203.29944v0.7c-0.00932,2.03982 0.10992,4.07819 0.357,6.103c0.25534,2.006 0.64667,3.82933 1.174,5.47c0.53499,1.72851 1.316,3.37103 2.319,4.877c1.65394,2.40506 4.11389,4.1389 6.935,4.888c1.74,0.508 3.71166,0.762 5.915,0.762c1.80397,0.01855 3.60158,-0.21675 5.34,-0.699c3.02864,-0.84323 5.67831,-2.69589 7.51,-5.251c1.28561,-1.79952 2.26419,-3.7996 2.896,-5.919c0.568,-1.82467 0.96967,-3.84266 1.205,-6.054c0.17071,-1.65345 0.25383,-3.31477 0.249,-4.977c0,-14.564 -5.185,-22.05767 -15.555,-22.481c-0.31484,-0.01275 -0.6299,-0.01909 -0.945,-0.019c-1.68963,-0.01439 -3.37583,0.1546 -5.029,0.504c-3.64333,0.80467 -6.417,2.57 -8.321,5.296c-1.11472,1.63509 -1.97329,3.43077 -2.546,5.325c-0.53266,1.69 -0.924,3.56166 -1.174,5.615c-0.2278,1.94492 -0.338,3.90181 -0.33,5.86zM84.7,176.79944h5.7v53.2h-5.7zM170.9,199.39944h31.9c0.01099,-1.88496 -0.14665,-3.76712 -0.471,-5.624c-0.38533,-2.12867 -1.00666,-4.05066 -1.864,-5.766c-0.38294,-0.76825 -0.82249,-1.50695 -1.315,-2.21c-1.88093,-2.69638 -4.7979,-4.48974 -8.053,-4.951c-1.02346,-0.17022 -2.05949,-0.25352 -3.097,-0.249c-1.92487,-0.02006 -3.8401,0.27448 -5.67,0.872c-2.36786,0.79767 -4.49434,2.18366 -6.18,4.028c-1.60918,1.76623 -2.84943,3.83604 -3.648,6.088c-0.62333,1.69134 -1.07834,3.56167 -1.365,5.611c-0.10139,0.73108 -0.18043,1.46509 -0.237,2.201zM436,203.09944l-9,0.4c-6.8,0.33334 -11.85,1.51667 -15.15,3.55c-2.99133,1.84333 -4.627,4.49434 -4.907,7.953c-0.02909,0.36494 -0.04344,0.7309 -0.043,1.097c-0.00871,1.00951 0.10002,2.01661 0.324,3.001c0.34933,1.47466 0.98034,2.72267 1.893,3.744c0.25776,0.2882 0.53616,0.55724 0.833,0.805c1.754,1.46667 4.091,2.30067 7.011,2.502c0.47897,0.03251 0.95892,0.04852 1.439,0.048c1.77197,0.0142 3.53975,-0.17401 5.269,-0.561c2.59467,-0.60267 4.811,-1.691 6.649,-3.265c0.34154,-0.29254 0.66924,-0.60087 0.982,-0.924c1.90808,-2.00047 3.26399,-4.46214 3.935,-7.144c0.484,-1.81667 0.739,-3.81867 0.765,-6.006zM91.5,161.39944c-0.00007,-0.04033 -0.00041,-0.08067 -0.001,-0.121c-0.036,-2.786 -1.33567,-4.179 -3.899,-4.179c-0.3592,-0.00224 -0.7178,0.02957 -1.071,0.095c-1.41867,0.272 -2.30366,1.13267 -2.655,2.582c-0.12193,0.53223 -0.18033,1.07702 -0.174,1.623c0.00009,0.08868 0.00142,0.17735 0.004,0.266c0.07734,2.756 1.376,4.134 3.896,4.134c0.34737,0.00218 0.6942,-0.02795 1.036,-0.09c1.43933,-0.27133 2.336,-1.15466 2.69,-2.65c0.12192,-0.54476 0.18031,-1.1018 0.174,-1.66z" fill="#ffffff" fill-rule="evenodd" stroke="#ffffff" stroke-width="0" stroke-linecap="round"/>
            <path d="M194.69212,148.00024c-1.49918,6.05012 -5.1916,11.32663 -10.39856,14.85755c-4.42805,3.00452 -9.47745,4.44427 -14.4766,4.44427c-8.20538,0 -16.27633,-3.87784 -21.25158,-11.0833c-3.87008,-5.60729 -5.31204,-12.37459 -4.06016,-19.05453c1.25734,-6.71088 5.07876,-12.52835 10.75948,-16.38149c3.14981,-2.13596 6.75797,-3.55632 10.43567,-4.10653c0.35776,-0.05175 0.7156,0.14758 0.85234,0.48912c0.13603,0.34083 0.0201,0.73032 -0.28053,0.94129c-8.93183,6.26726 -11.1675,18.6542 -4.98293,27.61237c6.29282,9.11652 18.89618,11.4557 28.08994,5.21938c1.58654,-1.07803 2.90411,-2.29288 3.91725,-3.61044c0.22878,-0.29754 0.63449,-0.39337 0.97144,-0.23036c0.33687,0.1623 0.5146,0.53945 0.42423,0.90267z" fill="#ffffff" fill-rule="nonzero" stroke="none" stroke-width="0.5" stroke-linecap="butt"/>
            <path d="M73.40625,230.00447v-5.3125h194.68452v5.3125z" fill="#ffffff" fill-rule="nonzero" stroke="none" stroke-width="0" stroke-linecap="butt"/>
            <path d="M262.40625,239.3378v-5.3125h179.51785v5.3125z" fill="#ffffff" fill-rule="nonzero" stroke="none" stroke-width="0" stroke-linecap="butt"/>
        </g>
    </g>
</svg>